<mxfile host="app.diagrams.net" modified="2023-11-03T08:48:40.132Z" agent="Mozilla/5.0 (Windows NT 10.0; Win64; x64) AppleWebKit/537.36 (KHTML, like Gecko) Chrome/118.0.0.0 Safari/537.36" version="21.7.5" etag="ZZ86Wa8iYJNDC59__a1J" type="github">
  <diagram name="第 1 页" id="m73FjYxaq2TLEmXIzn8r">
    <mxGraphModel>
      <root>
        <mxCell id="0" />
        <mxCell id="1" parent="0" />
      </root>
    </mxGraphModel>
  </diagram>
</mxfile>
